<svg xmlns="http://www.w3.org/2000/svg" xmlns:xlink="http://www.w3.org/1999/xlink" width="220" zoomAndPan="magnify" viewBox="0 0 165 30.000001" height="40" preserveAspectRatio="xMidYMid meet" version="1.2"><defs/><g id="1162531358"><g style="fill:#ffffff;fill-opacity:1;"><g transform="translate(5.62543, 24.013154)"><path style="stroke:none" d="M 0 0 L 5.46875 -14.890625 C 5.738281 -15.628906 6.1875 -16.1875 6.8125 -16.5625 C 7.4375 -16.9375 8.140625 -17.125 8.921875 -17.125 C 9.710938 -17.125 10.421875 -16.941406 11.046875 -16.578125 C 11.671875 -16.222656 12.117188 -15.671875 12.390625 -14.921875 L 17.875 0 L 13.515625 0 L 12.46875 -3.25 L 5.3125 -3.25 L 4.203125 0 Z M 6.359375 -6.59375 L 11.421875 -6.59375 L 9.28125 -13.3125 C 9.25 -13.40625 9.207031 -13.472656 9.15625 -13.515625 C 9.101562 -13.554688 9.035156 -13.578125 8.953125 -13.578125 C 8.867188 -13.578125 8.796875 -13.550781 8.734375 -13.5 C 8.679688 -13.445312 8.648438 -13.382812 8.640625 -13.3125 Z M 6.359375 -6.59375 "/></g></g><g style="fill:#ffffff;fill-opacity:1;"><g transform="translate(21.121214, 24.013154)"><path style="stroke:none" d="M 1.46875 0 L 1.46875 -16.84375 L 11.234375 -16.84375 C 12.066406 -16.84375 12.820312 -16.65625 13.5 -16.28125 C 14.1875 -15.914062 14.734375 -15.40625 15.140625 -14.75 C 15.554688 -14.09375 15.765625 -13.316406 15.765625 -12.421875 C 15.765625 -11.890625 15.660156 -11.378906 15.453125 -10.890625 C 15.253906 -10.410156 14.972656 -9.988281 14.609375 -9.625 C 14.253906 -9.257812 13.84375 -8.960938 13.375 -8.734375 C 13.925781 -8.503906 14.410156 -8.179688 14.828125 -7.765625 C 15.253906 -7.347656 15.59375 -6.867188 15.84375 -6.328125 C 16.09375 -5.785156 16.21875 -5.203125 16.21875 -4.578125 C 16.21875 -3.660156 16.003906 -2.851562 15.578125 -2.15625 C 15.148438 -1.46875 14.582031 -0.9375 13.875 -0.5625 C 13.175781 -0.1875 12.394531 0 11.53125 0 Z M 5.515625 -3.34375 L 10.46875 -3.34375 C 10.800781 -3.34375 11.097656 -3.421875 11.359375 -3.578125 C 11.628906 -3.742188 11.84375 -3.960938 12 -4.234375 C 12.164062 -4.503906 12.25 -4.800781 12.25 -5.125 C 12.25 -5.457031 12.164062 -5.753906 12 -6.015625 C 11.84375 -6.285156 11.628906 -6.5 11.359375 -6.65625 C 11.097656 -6.820312 10.800781 -6.90625 10.46875 -6.90625 L 5.515625 -6.90625 Z M 5.515625 -10.125 L 10.0625 -10.125 C 10.382812 -10.125 10.664062 -10.203125 10.90625 -10.359375 C 11.15625 -10.515625 11.351562 -10.710938 11.5 -10.953125 C 11.644531 -11.203125 11.71875 -11.484375 11.71875 -11.796875 C 11.71875 -12.109375 11.644531 -12.390625 11.5 -12.640625 C 11.351562 -12.890625 11.15625 -13.085938 10.90625 -13.234375 C 10.664062 -13.390625 10.382812 -13.46875 10.0625 -13.46875 L 5.515625 -13.46875 Z M 5.515625 -10.125 "/></g></g><g style="fill:#ffffff;fill-opacity:1;"><g transform="translate(35.822941, 24.013154)"><path style="stroke:none" d="M 1.46875 0 L 1.46875 -16.84375 L 7.65625 -16.84375 C 9.4375 -16.84375 10.976562 -16.476562 12.28125 -15.75 C 13.59375 -15.03125 14.613281 -14.035156 15.34375 -12.765625 C 16.070312 -11.503906 16.4375 -10.054688 16.4375 -8.421875 C 16.4375 -6.785156 16.070312 -5.332031 15.34375 -4.0625 C 14.613281 -2.800781 13.59375 -1.804688 12.28125 -1.078125 C 10.976562 -0.359375 9.4375 0 7.65625 0 Z M 5.515625 -3.375 L 7.5625 -3.375 C 8.488281 -3.375 9.316406 -3.578125 10.046875 -3.984375 C 10.773438 -4.390625 11.347656 -4.96875 11.765625 -5.71875 C 12.179688 -6.476562 12.390625 -7.378906 12.390625 -8.421875 C 12.390625 -9.460938 12.179688 -10.359375 11.765625 -11.109375 C 11.347656 -11.867188 10.773438 -12.453125 10.046875 -12.859375 C 9.316406 -13.265625 8.488281 -13.46875 7.5625 -13.46875 L 5.515625 -13.46875 Z M 5.515625 -3.375 "/></g></g><g style="fill:#ffffff;fill-opacity:1;"><g transform="translate(50.548733, 24.013154)"><path style="stroke:none" d="M 8.5625 0.28125 C 7.164062 0.28125 5.925781 0.00390625 4.84375 -0.546875 C 3.757812 -1.109375 2.910156 -1.910156 2.296875 -2.953125 C 1.691406 -4.003906 1.390625 -5.25 1.390625 -6.6875 L 1.390625 -16.84375 L 5.390625 -16.84375 L 5.390625 -6.46875 C 5.390625 -5.84375 5.515625 -5.273438 5.765625 -4.765625 C 6.023438 -4.265625 6.394531 -3.863281 6.875 -3.5625 C 7.363281 -3.269531 7.925781 -3.125 8.5625 -3.125 C 9.21875 -3.125 9.78125 -3.269531 10.25 -3.5625 C 10.726562 -3.863281 11.097656 -4.265625 11.359375 -4.765625 C 11.617188 -5.273438 11.75 -5.84375 11.75 -6.46875 L 11.75 -16.84375 L 15.734375 -16.84375 L 15.734375 -6.6875 C 15.734375 -5.25 15.425781 -4.003906 14.8125 -2.953125 C 14.195312 -1.910156 13.347656 -1.109375 12.265625 -0.546875 C 11.191406 0.00390625 9.957031 0.28125 8.5625 0.28125 Z M 8.5625 0.28125 "/></g></g><g style="fill:#ffffff;fill-opacity:1;"><g transform="translate(65.274525, 24.013154)"><path style="stroke:none" d="M 6.46875 0 C 5.425781 0 4.507812 -0.226562 3.71875 -0.6875 C 2.9375 -1.15625 2.328125 -1.773438 1.890625 -2.546875 C 1.460938 -3.316406 1.25 -4.164062 1.25 -5.09375 L 1.25 -16.84375 L 5.296875 -16.84375 L 5.296875 -4.8125 C 5.296875 -4.425781 5.429688 -4.085938 5.703125 -3.796875 C 5.972656 -3.515625 6.3125 -3.375 6.71875 -3.375 L 11.171875 -3.375 L 11.171875 0 Z M 6.46875 0 "/></g></g><g style="fill:#ffffff;fill-opacity:1;"><g transform="translate(74.514103, 24.013154)"><path style="stroke:none" d="M 1.5625 0 L 1.5625 -3.375 L 8.765625 -3.375 C 9.078125 -3.375 9.363281 -3.453125 9.625 -3.609375 C 9.882812 -3.765625 10.085938 -3.972656 10.234375 -4.234375 C 10.390625 -4.492188 10.46875 -4.773438 10.46875 -5.078125 C 10.46875 -5.398438 10.390625 -5.6875 10.234375 -5.9375 C 10.085938 -6.195312 9.882812 -6.40625 9.625 -6.5625 C 9.363281 -6.726562 9.078125 -6.8125 8.765625 -6.8125 L 6.15625 -6.8125 C 5.175781 -6.8125 4.285156 -7.003906 3.484375 -7.390625 C 2.679688 -7.773438 2.039062 -8.335938 1.5625 -9.078125 C 1.09375 -9.828125 0.859375 -10.722656 0.859375 -11.765625 C 0.859375 -12.796875 1.082031 -13.6875 1.53125 -14.4375 C 1.988281 -15.1875 2.601562 -15.773438 3.375 -16.203125 C 4.144531 -16.628906 4.992188 -16.84375 5.921875 -16.84375 L 13.359375 -16.84375 L 13.359375 -13.46875 L 6.375 -13.46875 C 6.082031 -13.46875 5.816406 -13.394531 5.578125 -13.25 C 5.335938 -13.113281 5.15625 -12.921875 5.03125 -12.671875 C 4.90625 -12.429688 4.84375 -12.171875 4.84375 -11.890625 C 4.84375 -11.597656 4.90625 -11.332031 5.03125 -11.09375 C 5.15625 -10.863281 5.335938 -10.675781 5.578125 -10.53125 C 5.816406 -10.394531 6.082031 -10.328125 6.375 -10.328125 L 9.09375 -10.328125 C 10.164062 -10.328125 11.097656 -10.117188 11.890625 -9.703125 C 12.691406 -9.296875 13.3125 -8.726562 13.75 -8 C 14.1875 -7.269531 14.40625 -6.414062 14.40625 -5.4375 C 14.40625 -4.28125 14.175781 -3.296875 13.71875 -2.484375 C 13.269531 -1.679688 12.660156 -1.066406 11.890625 -0.640625 C 11.117188 -0.210938 10.269531 0 9.34375 0 Z M 1.5625 0 "/></g></g><g style="fill:#ffffff;fill-opacity:1;"><g transform="translate(87.314903, 24.013154)"><path style="stroke:none" d="M 0 0 L 5.46875 -14.890625 C 5.738281 -15.628906 6.1875 -16.1875 6.8125 -16.5625 C 7.4375 -16.9375 8.140625 -17.125 8.921875 -17.125 C 9.710938 -17.125 10.421875 -16.941406 11.046875 -16.578125 C 11.671875 -16.222656 12.117188 -15.671875 12.390625 -14.921875 L 17.875 0 L 13.515625 0 L 12.46875 -3.25 L 5.3125 -3.25 L 4.203125 0 Z M 6.359375 -6.59375 L 11.421875 -6.59375 L 9.28125 -13.3125 C 9.25 -13.40625 9.207031 -13.472656 9.15625 -13.515625 C 9.101562 -13.554688 9.035156 -13.578125 8.953125 -13.578125 C 8.867188 -13.578125 8.796875 -13.550781 8.734375 -13.5 C 8.679688 -13.445312 8.648438 -13.382812 8.640625 -13.3125 Z M 6.359375 -6.59375 "/></g></g><g style="fill:#ffffff;fill-opacity:1;"><g transform="translate(102.810682, 24.013154)"><path style="stroke:none" d="M 13.328125 0.28125 C 12.347656 0.28125 11.453125 0.0664062 10.640625 -0.359375 C 9.835938 -0.796875 9.195312 -1.398438 8.71875 -2.171875 C 8.25 -2.941406 8.015625 -3.851562 8.015625 -4.90625 L 8.015625 -12.25 C 8.015625 -12.5 7.945312 -12.726562 7.8125 -12.9375 C 7.6875 -13.15625 7.519531 -13.328125 7.3125 -13.453125 C 7.101562 -13.578125 6.867188 -13.640625 6.609375 -13.640625 C 6.359375 -13.640625 6.128906 -13.578125 5.921875 -13.453125 C 5.710938 -13.328125 5.546875 -13.15625 5.421875 -12.9375 C 5.304688 -12.726562 5.25 -12.5 5.25 -12.25 L 5.25 0 L 1.296875 0 L 1.296875 -11.953125 C 1.296875 -12.960938 1.523438 -13.851562 1.984375 -14.625 C 2.441406 -15.394531 3.070312 -16.003906 3.875 -16.453125 C 4.6875 -16.898438 5.597656 -17.125 6.609375 -17.125 C 7.640625 -17.125 8.554688 -16.898438 9.359375 -16.453125 C 10.160156 -16.003906 10.789062 -15.394531 11.25 -14.625 C 11.71875 -13.851562 11.953125 -12.960938 11.953125 -11.953125 L 11.953125 -4.625 C 11.953125 -4.34375 12.015625 -4.097656 12.140625 -3.890625 C 12.273438 -3.679688 12.441406 -3.515625 12.640625 -3.390625 C 12.847656 -3.273438 13.070312 -3.21875 13.3125 -3.21875 C 13.5625 -3.21875 13.796875 -3.273438 14.015625 -3.390625 C 14.234375 -3.515625 14.40625 -3.679688 14.53125 -3.890625 C 14.65625 -4.097656 14.71875 -4.34375 14.71875 -4.625 L 14.71875 -11.953125 C 14.71875 -12.960938 14.953125 -13.851562 15.421875 -14.625 C 15.890625 -15.394531 16.523438 -16.003906 17.328125 -16.453125 C 18.140625 -16.898438 19.046875 -17.125 20.046875 -17.125 C 21.066406 -17.125 21.972656 -16.898438 22.765625 -16.453125 C 23.566406 -16.003906 24.195312 -15.394531 24.65625 -14.625 C 25.125 -13.851562 25.359375 -12.960938 25.359375 -11.953125 L 25.359375 0 L 21.421875 0 L 21.421875 -12.265625 C 21.421875 -12.523438 21.359375 -12.753906 21.234375 -12.953125 C 21.109375 -13.160156 20.941406 -13.328125 20.734375 -13.453125 C 20.523438 -13.578125 20.296875 -13.640625 20.046875 -13.640625 C 19.804688 -13.640625 19.578125 -13.578125 19.359375 -13.453125 C 19.140625 -13.328125 18.960938 -13.160156 18.828125 -12.953125 C 18.703125 -12.753906 18.640625 -12.523438 18.640625 -12.265625 L 18.640625 -4.90625 C 18.640625 -3.851562 18.398438 -2.941406 17.921875 -2.171875 C 17.441406 -1.398438 16.800781 -0.796875 16 -0.359375 C 15.195312 0.0664062 14.304688 0.28125 13.328125 0.28125 Z M 13.328125 0.28125 "/></g></g><g style="fill:#ffffff;fill-opacity:1;"><g transform="translate(127.089225, 24.013154)"><path style="stroke:none" d="M 5.96875 0 C 5.019531 0 4.160156 -0.21875 3.390625 -0.65625 C 2.617188 -1.101562 2.003906 -1.695312 1.546875 -2.4375 C 1.085938 -3.1875 0.859375 -4.035156 0.859375 -4.984375 C 0.859375 -5.691406 1.015625 -6.351562 1.328125 -6.96875 C 1.640625 -7.582031 2.0625 -8.113281 2.59375 -8.5625 C 2.082031 -9 1.675781 -9.515625 1.375 -10.109375 C 1.082031 -10.703125 0.9375 -11.328125 0.9375 -11.984375 C 0.9375 -12.910156 1.160156 -13.738281 1.609375 -14.46875 C 2.054688 -15.195312 2.65625 -15.773438 3.40625 -16.203125 C 4.164062 -16.628906 5.003906 -16.84375 5.921875 -16.84375 L 13.015625 -16.84375 L 13.015625 -13.46875 L 6.546875 -13.46875 C 6.242188 -13.46875 5.960938 -13.394531 5.703125 -13.25 C 5.441406 -13.113281 5.234375 -12.921875 5.078125 -12.671875 C 4.929688 -12.429688 4.859375 -12.15625 4.859375 -11.84375 C 4.859375 -11.53125 4.929688 -11.25 5.078125 -11 C 5.234375 -10.757812 5.441406 -10.566406 5.703125 -10.421875 C 5.960938 -10.285156 6.242188 -10.21875 6.546875 -10.21875 L 12.203125 -10.21875 L 12.203125 -6.859375 L 6.671875 -6.859375 C 6.328125 -6.859375 6.019531 -6.773438 5.75 -6.609375 C 5.476562 -6.453125 5.257812 -6.242188 5.09375 -5.984375 C 4.9375 -5.734375 4.859375 -5.4375 4.859375 -5.09375 C 4.859375 -4.78125 4.9375 -4.488281 5.09375 -4.21875 C 5.257812 -3.957031 5.476562 -3.753906 5.75 -3.609375 C 6.019531 -3.460938 6.328125 -3.390625 6.671875 -3.390625 L 13.015625 -3.390625 L 13.015625 0 Z M 5.96875 0 "/></g></g><g style="fill:#ffffff;fill-opacity:1;"><g transform="translate(138.662862, 24.013154)"><path style="stroke:none" d="M 10.125 0 C 9.101562 0 8.203125 -0.226562 7.421875 -0.6875 C 6.640625 -1.144531 6.03125 -1.757812 5.59375 -2.53125 C 5.15625 -3.300781 4.9375 -4.15625 4.9375 -5.09375 L 4.9375 -13.46875 L 0.359375 -13.46875 L 0.359375 -16.84375 L 13.515625 -16.84375 L 13.515625 -13.46875 L 8.96875 -13.46875 L 8.96875 -4.734375 C 8.96875 -4.367188 9.097656 -4.050781 9.359375 -3.78125 C 9.617188 -3.507812 9.941406 -3.375 10.328125 -3.375 L 11.640625 -3.375 L 11.640625 0 Z M 10.125 0 "/></g></g><g style="fill:#b923e1;fill-opacity:1;"><g transform="translate(150.597993, 23.867315)"><path style="stroke:none" d="M 5.484375 0.484375 C 4.390625 0.484375 3.453125 0.0976562 2.671875 -0.671875 C 1.898438 -1.453125 1.515625 -2.375 1.515625 -3.4375 C 1.515625 -4.53125 1.898438 -5.460938 2.671875 -6.234375 C 3.453125 -7.015625 4.390625 -7.40625 5.484375 -7.40625 C 6.546875 -7.40625 7.460938 -7.015625 8.234375 -6.234375 C 9.015625 -5.460938 9.40625 -4.53125 9.40625 -3.4375 C 9.40625 -2.726562 9.226562 -2.070312 8.875 -1.46875 C 8.519531 -0.875 8.046875 -0.398438 7.453125 -0.046875 C 6.867188 0.304688 6.210938 0.484375 5.484375 0.484375 Z M 5.484375 0.484375 "/></g></g></g></svg>